<svg viewbox="0 0 664 307" width="664" height="307" fill="none" xmlns="http://www.w3.org/2000/svg"><path d="M521.62 253.56h-.44c-.84 0-1.56.57-1.76 1.37l-.64 2.53c-1.55 6.33-3.68 10.48-6.52 12.69-2.85 2.2-8.6 3.27-17.58 3.27h-24.84c-8.74 0-14.13-1.43-16.5-4.36-2.34-2.9-3.47-9.43-3.47-19.97v-64.16c0-10.53 1.14-17.06 3.47-19.96 2.18-2.7 6.9-4.11 14.43-4.33.99-.04 1.76-.83 1.76-1.82v-.11c0-1-.81-1.82-1.82-1.82h-51.63c-1 0-1.81.82-1.81 1.82v.11c0 .98.77 1.78 1.76 1.82 7.53.22 12.25 1.64 14.42 4.32 2.35 2.92 3.49 9.45 3.49 19.97v67.26c0 10.37-1.21 17.12-3.6 20.07-2.21 2.75-6.89 4.2-14.32 4.43-.98.04-1.75.84-1.75 1.82v.12c0 1 .81 1.82 1.81 1.82H520.2c.95 0 1.75-.75 1.81-1.71l1.39-23.15c.01-.07.01-.15.01-.23.02-.99-.79-1.8-1.79-1.8zm-119.75-96.67h-51.62c-1 0-1.82.81-1.82 1.82v.11c0 .99.78 1.79 1.77 1.82 7.53.22 12.25 1.64 14.41 4.33 2.35 2.92 3.49 9.45 3.49 19.96v67.26c0 10.38-1.21 17.13-3.59 20.07-2.22 2.75-6.9 4.2-14.31 4.44-.98.03-1.77.84-1.77 1.81v.12c0 1 .82 1.82 1.82 1.82h51.62c1 0 1.82-.82 1.82-1.82v-.12c0-.99-.77-1.79-1.76-1.81-7.53-.22-12.25-1.64-14.41-4.34-2.35-2.9-3.49-9.49-3.49-20.17v-67.26c0-10.53 1.14-17.06 3.49-19.97 2.16-2.69 6.87-4.1 14.41-4.33.99-.03 1.76-.83 1.76-1.82v-.11c0-1-.82-1.81-1.82-1.81zm235.82 17.3c-11.48-11.48-28.81-17.29-51.53-17.29h-53.97c-1 0-1.81.81-1.81 1.82v.12c0 .99.77 1.79 1.76 1.81 7.53.22 12.25 1.64 14.42 4.33 2.35 2.93 3.49 9.46 3.49 19.97v67.26c0 10.52-1.17 17.09-3.59 20.07-2.22 2.75-6.9 4.2-14.31 4.44-.99.03-1.76.83-1.76 1.82v.12c0 1 .81 1.82 1.81 1.82h53.97c22.85 0 40.22-5.79 51.63-17.2 11.41-11.4 17.19-26.4 17.19-44.59-.02-18.06-5.83-33.03-17.3-44.5zm-68.33 94.98c-3.21-3.62-3.38-9.4-3.38-20.07v-85.18h20.39c18.24 0 31.18 5.41 38.45 16.08 7.24 10.63 10.92 23.64 10.92 38.68 0 14.9-3.67 27.88-10.92 38.58-7.27 10.73-20.21 16.18-38.45 16.18h-.82c-8.6-.01-13.43-1.15-16.19-4.27zM338.53 156.9l-51.62.07c-.47.01-.94.18-1.28.52-.35.34-.54.8-.55 1.29v.1c-.02.98.76 1.8 1.74 1.84 1 .04 2.16.05 3.27.06.4 0 .8.01 1.2.01v.02c7.41.08 11.72 1.55 13.18 4.48 1.09 2.19 1.94 5.24.07 11.32l-21.7 68.48-27.99-88.16h-3.17l-27.99 88.36-21.89-68.66c-1.71-5.65-1.76-8.98-.15-11.14 1.31-1.77 5.87-3.71 10.54-4.52 1.03-.11 2.14-.22 3.32-.24.99-.03 1.77-.82 1.77-1.81v-.1c.01-.49-.18-.95-.52-1.3-.34-.35-.8-.54-1.29-.54l-51.62.06c-1 0-1.82.81-1.82 1.81v.11c-.01.99.76 1.8 1.75 1.83 1.21.05 2.74.14 4.44.29 8.74 1.48 12.94 6 16.64 17.89l32.64 102.55h2.97l28.19-88.55 27.99 88.55h2.97l32.64-102.56c3.94-12.6 6.38-18.17 22.72-18.29v-.01h.89c1 0 1.95-.01 2.7-.02 1-.02 1.78-.81 1.78-1.77l.01-.15c0-.48-.18-.94-.52-1.29-.37-.34-.83-.53-1.31-.53zM240.21 118.12c13.41 12.72 29.7 19.17 48.44 19.17 18.86 0 35.23-6.45 48.63-19.17 13.39-12.71 20.19-28.23 20.19-46.14 0-17.9-6.79-33.42-20.19-46.13-13.4-12.72-29.76-19.16-48.63-19.16-18.74 0-35.04 6.45-48.44 19.16-13.39 12.7-20.19 28.23-20.19 46.13.01 17.91 6.8 33.43 20.19 46.14zm85.74-6.11c-8.29 11.69-20.84 17.62-37.3 17.62-16.46 0-28.98-5.93-37.21-17.62-8.21-11.66-12.37-25.12-12.37-40.03 0-14.89 4.2-28.39 12.47-40.13 8.31-11.77 20.79-17.73 37.11-17.73 16.58 0 29.17 5.97 37.41 17.74 8.21 11.74 12.38 25.24 12.38 40.12-.01 14.9-4.21 28.37-12.49 40.03zm177.27-40.03c0-17.9-6.79-33.43-20.19-46.14-13.39-12.71-29.75-19.16001-48.62-19.16001-18.75 0-35.05 6.45001-48.44 19.16001s-20.19 28.23-20.19 46.13c0 17.9 6.79 33.43 20.19 46.14 13.41 12.72 29.71 19.17 48.44 19.17 18.85 0 35.21-6.45 48.62-19.17 13.39-12.7 20.19-28.22 20.19-46.13zM434.4 14.12c16.59 0 29.17 5.97 37.4 17.74 8.21 11.74 12.37 25.24 12.37 40.12 0 14.9-4.2 28.36-12.48 40.03-8.3 11.69-20.84 17.62-37.29 17.62-16.46 0-28.98-5.93-37.21-17.62-8.21-11.65-12.38-25.12-12.38-40.03 0-14.89 4.2-28.39 12.47-40.13 8.32-11.76 20.81-17.73 37.12-17.73zM107.17 79.43c-4.77-5.86-11.2-10.07-19.1-12.52l-.67-.21.61-.36c5.05-3.01 9.02-6.73 11.79-11.08 2.79-4.34 4.2-9.16 4.2-14.33 0-8.94-3.42-16.14-10.45-22.01-6.96-5.79-16.78-8.72-29.19-8.72H10.81c-1.00002 0-1.82001.81-1.82001 1.82v.12c0 .97.78999 1.79 1.76001 1.82 7.52.22 12.24 1.63 14.41 4.33 2.38 2.95 3.49 9.29 3.49 19.96v67.27c0 10.38-1.21 17.13-3.59 20.07-2.23 2.75-6.91 4.2-14.32 4.44-.98001.04-1.76002.83-1.76002 1.82v.12c0 1 .81001 1.82 1.82002 1.82h59.35c13.93 0 24.9-3.28 32.6-9.76 7.8-6.55 11.59-14.63 11.59-24.71.01-7.35-2.41-14.04-7.17-19.89zM96.75 99.31c0 7.91-2.32 14.53-6.91 19.66-4.58 5.15-11.28 7.77-19.89 7.77h-5.38c-8.73 0-12.93-1.18-16.49-4.35-3.48-3.11-3.48-9.44-3.48-19.97V71.47h25.36c8.74 0 15.47 2.65 20 7.87 4.5 5.21 6.79 11.93 6.79 19.97zM44.59 64.43v-47.2h18.73c7.65 0 13.48 2.23 17.31 6.63 3.83 4.38 5.77 10.12 5.77 17.06 0 6.95-1.98 12.66-5.88 16.98-3.9 4.33-9.69 6.52-17.2 6.52H44.59v.01z" fill="#000"/><path d="M218.73 132.06l1.4-23.17c.01-.07.02-.14.02-.21 0-1-.81-1.82-1.82-1.82h-.42c-.83 0-1.56.57-1.76 1.38l-.63 2.53c-1.56 6.34-3.7 10.49-6.53 12.69-2.84 2.2-8.59 3.27-17.58 3.27h-24.84c-8.73 0-14.13-1.42-16.49-4.35-2.38-2.95-3.48-9.29-3.48-19.97V38.25c0-10.67 1.11-17.02 3.48-19.96 2.17-2.7 6.88-4.11 14.4-4.33.98-.03 1.77-.84 1.77-1.82v-.12c0-1-.82-1.82-1.82-1.82H112.8c-1 0-1.82.81-1.82 1.82v.12c0 .97.79 1.79 1.76 1.82 7.53.22 12.25 1.63 14.42 4.32 2.35 2.92 3.49 9.45 3.49 19.97v67.27c0 10.38-1.21 17.13-3.59 20.07-2.23 2.75-6.91 4.2-14.32 4.44-.98.04-1.76.83-1.76 1.81v.12c0 1 .81 1.82 1.82 1.82h104.12c.96-.01 1.76-.76 1.81-1.72zM638.59 18.28c2.17-2.7 6.96-4.11 14.63-4.33.98-.04 1.75-.84 1.75-1.82v-.11c0-1-.81-1.82-1.82-1.82h-29c-.73 0-1.38.43-1.66 1.1l-43.44 100.31-43.57-100.3c-.28-.67-.94-1.1-1.67-1.1h-31.63c-1 0-1.82.81-1.82 1.82v.12c0 .97.79 1.79 1.76 1.82 7.52.22 12.23 1.63 14.41 4.32 2.34 2.92 3.48 9.45 3.48 19.97v67.27c0 10.53-1.17 17.09-3.58 20.07-2.24 2.75-6.92 4.21-14.32 4.44-.98.04-1.75.83-1.75 1.82v.12c0 1 .81 1.82 1.82 1.82h42.92c1 0 1.82-.81 1.82-1.82v-.12c0-.97-.79-1.79-1.76-1.82-7.66-.22-12.45-1.64-14.62-4.34-2.35-2.91-3.49-9.51-3.49-20.17V30.34L573 136.08s0 .01.01.01h3.33l43.04-99.33v68.82c0 10.36-1.21 17.09-3.59 20.02-2.23 2.74-6.91 4.19-14.32 4.43-.98.04-1.75.83-1.75 1.82v.12c0 1 .81 1.82 1.81 1.82h51.63c1 0 1.82-.81 1.82-1.82v-.12c0-.97-.79-1.79-1.76-1.82-7.67-.22-12.45-1.64-14.62-4.34-2.35-2.9-3.49-9.5-3.49-20.17V38.25c-.01-10.52 1.13-17.06 3.48-19.97zM145.57 299.34c.13 0 .24-.02.36-.05.63-.16 1.1-.73 1.1-1.41 0-.6-.37-1.12-.89-1.34-.76-.29-1.82-.42-2.79-.86-2.15-.98-3.88-2.41-5.44-3.97l-22.16-24.44c-.61-.68-.8-1.63-.53-2.47.11-.25.22-.52.34-.79V264c.48-1.11 2.13-4.87 3.17-5.78 1.77-1.56 3.96-2.08 6.17-2.38.24-.03.34-.14.33-.44-.05-3.27-.79-7.48-3.28-9.71-2.14-1.91-6.03-2.71-7.44-2.13-.01.01-.37.19-.33.44.33 2.52.44 6.57.02 9.08-.34 2.07-.87 3.98-1.93 5.74-.96 1.27-2.83 1.45-3.94.23l-40.2399-44.66c-.25-.29-.23-.6-.2-.76.05-.28.22-.51.47-.65 12.58-6.98 21.34-12.63 24.5-21.33 4.73-13.02-1.24-27.43-10.29-33.63-6.07-4.15-14.96-5.58-23.19-3.73-8.33 1.88-15.28 6.95-19.56 14.28-8.24 14.13-5.46 28.59 9.32 48.33.17.22.23.49.17.76s-.22.49-.46.62c-1 .55-2.03 1.11-3.1 1.68-13.76 7.45-39.37999 21.31-36.50999 48.01 1.33999 12.45 7.11999 22.95 16.39999 29.85 17.42 12.95 38.7 9.36 51.29 4.03 11.69-4.95 20.13-12.67 25.3299-18.33 1.03-1.12 2.8-1.08 3.79.07l13.59 15.76 25.93-.01zM52.4501 166.12c2.8-5.78 7.88-8.83 14.72-8.83 4.55 0 8.24 1.94 10.97 5.77 5.93 8.33 5.75 22.95 3.36 29.88-2 5.79-6.06 9.74-16.69 16.25-.4.24-.91.15-1.21-.21-.69-.84-1.32-1.63-1.91-2.37-10.54-13.32-14.33-29.97-9.24-40.49zm46.42 112.54c-5.49 6.18-13.47 13.59-23.06 17.82-9.56 4.22-21.3 3.82-30.63-1.06-6.72-3.51-15.36-10.95-18.38-26.48-4.81-24.71 5.15-35.6 25.23-47.04.15-.08.31-.12.47-.12.27 0 .53.12.72.34.66.81 35.96 41.86 45.7 53.2.83.96.8 2.38-.05 3.34z" fill="#000"/><path d="M109.87 225.77c.04-3.21.25-5.67.68-7.99.42-2.31 1.11-4.74 2.1-7.42.85-2.3 1.78-4.48 2.82-6.87.77-1.77 1.84-4.11 3.32-6.39 2.33-3.59 5.76-8.21 14.92-14.09 0 0 .58-.44.49-1.11-.68-3.77-3.67-4.99-7.29-6-2.14-.59-3.68-.35-7.61-.52-3.73-.16-5.66-3.42-7.35-3.61-2.47-.28-4.88.05-7.23.6-.02 0-.03.02-.05.02-.18.03-.33.16-.32.41.38 5.18-1.25 10.14-3.04 14.93-1.7599 4.69-3.5199 9.33-4.4899 14.26-.91 4.67-1.21 9.48-.43 14.19.76 4.59 2.63 8.85 5.2699 12.66 2.92 4.23 6.87 7.38 10.2 11.26-.75-3.59-2.05-10.3-1.99-14.33zm79.42 33.8c-.55-2.05-1.55-3.79-2.31-5.79-.86-2.26-1.82-5-5.03-6.75-2.29-1.25-5.4-.21-7.96.32-.02 0-.03.01-.05.01-.38.08-.76.15-1.11.19-1.82.28-3.8.36-5.95.26-.48-.02-.98-.06-1.48-.1-1.75-.15-3.47-.39-5.12-.62-2.04-.29-3.97-.55-5.89-.65-.16-.01-.32-.01-.48-.02-.38-.01-.79-.01-1.24 0-.58.11-1.19.26-1.8.43-.76.22-1.54.49-2.33.79-2.97 1.14-5.74 2.67-8.68 4.28l-1.24.68c-1.42.78-2.55 1.4-4.11 2.16-.2.1-.72.37-1.44.69-.44.22-2.77 1.35-3.66 1.47-.01.2.19.34.32.44 3.05 2.49 4.43 5.54 7.41 8.13 1.73 1.5 3.56 2.59 5.75 3.28 2.33.73 4.74 1.36 7.16 1.73 2.23.33 4.47.27 6.66-.29 2.01-.52 3.91-1.37 5.75-2.31 4.04-2.06 7.86-4.42 12.34-5.41 2.66-.59 5.5-1.07 8.17-.52 2.85.58 4.82 1.03 6.4 3.25.24.33.81.09.81-.29.03-2.26-.31-3.2-.89-5.36z" fill="#000"/><path d="M180.36 234.33c-.15-3.76-.63-7.56-2.18-11.02-1.59-3.55-3.09-5.61-4.93-9.03-.92-1.7-1.77-3.44-2.55-5.21-.75-1.69-1.02-2.87-1.97-4.47-1.61-2.73-2.97-3.53-5.81-4.72-1.66-.7-7.93-2.65-9.47-3.58-1.79-1.08-4.32-4.11-5.75-5.6-2.73-2.86-8.76-4.22-9.49-3.97-.73.25-2.57 1.49-2.57 1.49-8.27 5.31-10.04 8.87-12.06 11.98-1.25 1.93-2.2 3.99-2.88 5.57-1.01 2.32-1.91 4.41-2.7 6.57-.87 2.37-1.48 4.49-1.84 6.47-.36 1.99-.54 4.16-.58 7.04-.04 3.1.97 8.73 1.76 12.51 2.45.37 5.02 1.24 7.27 3.04 2.89 2.3 4.74 5.69 5.56 10.1.96-.35 1.77-.74 2.15-.94l.09-.05c1.47-.71 2.5-1.28 3.93-2.06l1.24-.68c2.67-1.47 5.05-3.29 7.91-4.42 6.59-2.58 13.46-1.71 20.33-1.14 4.19.35 7.81.01 10.18-.96l.25-.08c.82-.24 1.77-.53 2.74-.86.31-.34.59-.72.79-1.15.7-1.51.64-3.22.58-4.83z" fill="#000"/></svg>